<svg width="69" height="56" viewBox="0 0 69 56" fill="none" xmlns="http://www.w3.org/2000/svg">
<g clip-path="url(#clip0_56_22)">
<path d="M39.1501 16.9067L37.8401 15.9061C37.6353 15.7402 37.3734 15.6618 37.1113 15.6881C36.8491 15.7143 36.6079 15.843 36.4401 16.0462L18.3101 36.8797L18.5901 37.1899L23.0801 33.0472C22.9304 32.987 22.8066 32.8761 22.7301 32.734C22.6537 32.5919 22.6294 32.4275 22.6615 32.2693C22.6935 32.1111 22.78 31.9692 22.9058 31.8682C23.0316 31.7672 23.1888 31.7134 23.3501 31.7163C23.4955 31.7163 23.6371 31.763 23.7541 31.8494C23.8711 31.9359 23.9573 32.0576 24.0001 32.1967L29.9201 26.7031C30.0107 26.63 30.1236 26.5901 30.2401 26.5901C30.3565 26.5901 30.4694 26.63 30.5601 26.7031L30.8601 26.9232C30.9616 26.996 31.0866 27.0282 31.2106 27.0133C31.3346 26.9985 31.4485 26.9378 31.5301 26.8432L39.2701 18.1575C39.3523 18.0713 39.4151 17.9684 39.454 17.8557C39.493 17.7431 39.5073 17.6233 39.4959 17.5047C39.4845 17.386 39.4477 17.2712 39.3881 17.168C39.3284 17.0648 39.2472 16.9757 39.1501 16.9067V16.9067Z" fill="white"/>
<path d="M47.67 22.7708C43.7025 25.5956 39.2579 27.6803 34.55 28.9247C29.8775 30.1138 25.0962 30.8246 20.28 31.0461C20.377 31.7568 20.5514 32.4547 20.8 33.1275C23.52 35.5891 44 31.3863 48 26.5232C48.85 25.5125 47.67 22.7708 47.67 22.7708ZM23.35 33.0474C23.2155 33.0474 23.0841 33.0075 22.9722 32.9328C22.8604 32.858 22.7733 32.7517 22.7218 32.6274C22.6703 32.503 22.6569 32.3662 22.6831 32.2342C22.7093 32.1022 22.7741 31.981 22.8692 31.8858C22.9643 31.7907 23.0855 31.7259 23.2174 31.6996C23.3493 31.6734 23.486 31.6868 23.6103 31.7383C23.7345 31.7898 23.8407 31.8771 23.9154 31.989C23.9901 32.1009 24.03 32.2324 24.03 32.367C24.0314 32.4567 24.0147 32.5458 23.981 32.629C23.9473 32.7121 23.8973 32.7877 23.8339 32.8511C23.7705 32.9146 23.695 32.9647 23.6118 32.9984C23.5287 33.0321 23.4397 33.0488 23.35 33.0474V33.0474Z" fill="white"/>
<path d="M4.00006 21.3296L4.16006 20.6392L6.76006 21.2296C6.97456 21.626 7.10719 22.0616 7.15006 22.5104C7.19968 22.9857 7.16926 23.4661 7.06006 23.9313C6.93061 24.577 6.63406 25.1774 6.20006 25.6725C5.78714 26.1399 5.25473 26.4858 4.66006 26.6731C4.04715 26.8622 3.39526 26.8864 2.77006 26.7432C2.14348 26.6077 1.56592 26.3032 1.10006 25.8626C0.641324 25.4393 0.311921 24.8946 0.150055 24.2916C-0.0295106 23.6366 -0.0295106 22.9453 0.150055 22.2903C0.257533 21.8 0.450482 21.3326 0.720055 20.9094C0.975194 20.5244 1.3179 20.2055 1.72006 19.9788L2.08005 20.5291C1.73536 20.7409 1.43948 21.0234 1.21194 21.358C0.984399 21.6927 0.830382 22.0718 0.760055 22.4704C0.636042 22.988 0.646369 23.5288 0.790055 24.0414C0.924425 24.5281 1.19096 24.968 1.56006 25.3122C1.93943 25.6792 2.41409 25.9323 2.93006 26.0427C3.43038 26.1833 3.95973 26.1833 4.46006 26.0427C4.93934 25.8844 5.36983 25.6052 5.71006 25.2322C6.0597 24.8292 6.30065 24.3436 6.41006 23.8213C6.57459 23.1877 6.53254 22.518 6.29006 21.91L4.00006 21.3296Z" fill="white"/>
<path d="M9.66004 15.0355L7.33004 18.1476L8.33004 19.9387L7.87004 20.5591L4.17004 13.8047L4.60004 13.2144L12.13 14.8354L11.66 15.4558L9.66004 15.0355ZM9.00004 14.8754L5.00004 13.9748L7.00004 17.5672L9.00004 14.8754Z" fill="white"/>
<path d="M9 8.5814L9.6 8.1311L13.41 13.2344L16.55 10.8829L16.93 11.3932L13.2 14.185L9 8.5814Z" fill="white"/>
<path d="M15.3 4.40884L15.97 4.10864L18.61 9.8924L22.18 8.27135L22.44 8.85172L18.2 10.783L15.3 4.40884Z" fill="white"/>
<path d="M28.48 6.71015L28.63 7.34056L23.81 8.47129L22.21 1.64686L26.89 0.556152L27.03 1.17656L23.03 2.10716L23.6 4.52873L27.12 3.69819L27.27 4.3186L23.74 5.13913L24.34 7.67077L28.48 6.71015Z" fill="white"/>
<path d="M35.35 6.96036L33.68 4.75893C33.4934 4.76925 33.3065 4.76925 33.12 4.75893L31.24 4.81897L31.31 7.04041H30.57L30.34 0.0358628L33 0.0258563C33.752 -0.043647 34.5041 0.158695 35.12 0.596227C35.3795 0.805356 35.5882 1.07075 35.7302 1.37236C35.8723 1.67398 35.944 2.00395 35.94 2.33736C35.9692 2.83187 35.8395 3.32276 35.57 3.73827C35.2826 4.13708 34.8766 4.43478 34.41 4.58882L36.16 6.93034L35.35 6.96036ZM34.65 3.66822C34.8297 3.50346 34.9692 3.29955 35.0576 3.07226C35.146 2.84496 35.1811 2.60037 35.16 2.35737C35.1651 2.11308 35.1147 1.87082 35.0125 1.64892C34.9103 1.42701 34.7589 1.23128 34.57 1.07654C34.1091 0.763814 33.5548 0.61898 33 0.666272L31.1 0.736318L31.22 4.23859L33.08 4.17855C33.6471 4.19955 34.2034 4.01874 34.65 3.66822V3.66822Z" fill="white"/>
<path d="M40.79 5.09917L40.43 7.49073L39.7 7.38065L40.07 5.02913L38 0.0258789L38.78 0.145957L40.55 4.40873L43.55 0.876431L44.25 1.02653L40.79 5.09917Z" fill="white"/>
<path d="M50.53 4.6788L51.4001 5.80953L51.0201 6.10973L50.1501 4.94898L49.6 6.25983L49.18 6.07971L49.7401 4.76886L48.3 4.95898V4.47867L49.7201 4.31857L48.84 3.18783L49.23 2.88764L50 4.02838L50.5401 2.70752L50.9701 2.88764L50.46 4.22851L51.9001 4.02838V4.5187L50.53 4.6788Z" fill="white"/>
<path d="M53.8699 12.7442C53.6338 12.3799 53.4865 11.9652 53.4399 11.5334L54.0299 11.2733C54.0742 11.6699 54.2038 12.0523 54.4099 12.394C54.6333 12.7772 54.9248 13.1163 55.2699 13.3946C55.6264 13.7361 56.0812 13.9567 56.5699 14.025C56.7465 14.0414 56.9244 14.0144 57.0883 13.9464C57.2521 13.8784 57.3968 13.7714 57.5099 13.6348C57.5929 13.5432 57.6561 13.4356 57.6957 13.3185C57.7352 13.2014 57.7503 13.0775 57.7399 12.9543C57.7069 12.7105 57.6253 12.4757 57.4999 12.2639C57.312 11.9568 57.1084 11.6595 56.8899 11.3733C56.6237 11.0243 56.3831 10.6564 56.1699 10.2726C56.007 9.98534 55.9177 9.6622 55.9099 9.33199C55.9092 8.96118 56.0485 8.60378 56.2999 8.33134C56.5179 8.0673 56.8054 7.8697 57.1299 7.76097C57.4925 7.65617 57.8774 7.65617 58.2399 7.76097C58.7071 7.91385 59.1389 8.15883 59.5099 8.48144C59.8178 8.73768 60.0902 9.03381 60.3199 9.36201C60.5324 9.66637 60.6913 10.0048 60.7899 10.3627L60.2199 10.6629C60.1205 10.3293 59.9722 10.0123 59.7799 9.72225C59.5884 9.46322 59.3631 9.23101 59.1099 9.0318C58.7588 8.69182 58.3054 8.47727 57.8199 8.4214C57.6416 8.40648 57.4623 8.43616 57.2982 8.50777C57.1341 8.57938 56.9904 8.69069 56.8799 8.83167C56.7949 8.92181 56.7303 9.02929 56.6906 9.14673C56.6509 9.26417 56.637 9.38881 56.6499 9.51211C56.6733 9.76445 56.7555 10.0078 56.8899 10.2226C57.0299 10.4527 57.2299 10.7529 57.4999 11.1131C57.7676 11.4541 58.0083 11.8155 58.2199 12.1939C58.3863 12.4802 58.4791 12.8034 58.4899 13.1345C58.4906 13.5053 58.3513 13.8627 58.0999 14.1351C57.8812 14.4028 57.5893 14.601 57.2599 14.7055C56.898 14.8148 56.5119 14.8148 56.1499 14.7055C55.6796 14.5531 55.2444 14.3081 54.8699 13.985C54.4663 13.6335 54.1278 13.2134 53.8699 12.7442V12.7442Z" fill="white"/>
<path d="M63.93 14.205L62.52 12.2037L63.04 11.8335L66.29 16.4765L65.77 16.8468L64.36 14.8455L59.14 18.4978L58.72 17.8874L63.93 14.205Z" fill="white"/>
<path d="M61.69 22.4304C61.8685 21.8256 62.2153 21.2842 62.69 20.8694C63.1543 20.4533 63.7199 20.1668 64.33 20.0389C64.9519 19.896 65.6004 19.9202 66.21 20.1089C66.7983 20.3035 67.3257 20.6484 67.74 21.1095C68.1708 21.6054 68.4639 22.2058 68.59 22.8507C68.7556 23.4838 68.7556 24.1488 68.59 24.7819C68.4065 25.3844 68.0605 25.9246 67.59 26.3429C67.1128 26.7703 66.5333 27.0667 65.9077 27.2035C65.2821 27.3403 64.6318 27.3127 64.02 27.1235C63.4271 26.9383 62.8974 26.5918 62.49 26.1228C62.0611 25.6295 61.7682 25.0328 61.64 24.3917C61.4872 23.7446 61.5044 23.0689 61.69 22.4304V22.4304ZM63 25.6125C63.3339 25.993 63.7665 26.2735 64.25 26.423C64.7483 26.5676 65.2749 26.5848 65.7816 26.4729C66.2883 26.361 66.7588 26.1237 67.15 25.7826C67.5191 25.4428 67.7916 25.0112 67.94 24.5318C68.0794 24.0255 68.0931 23.4928 67.9798 22.9801C67.8665 22.4674 67.6297 21.9901 67.29 21.5899C66.9414 21.2076 66.4955 20.9274 66 20.7793C65.4954 20.6452 64.9646 20.6452 64.46 20.7793C63.9508 20.8771 63.4795 21.1164 63.1 21.4698C62.7275 21.8108 62.4545 22.2465 62.31 22.7306C62.1742 23.2387 62.1742 23.7735 62.31 24.2816C62.4195 24.7781 62.6574 25.237 63 25.6125V25.6125Z" fill="white"/>
<path d="M60.93 34.0481L63.52 33.0474C63.52 32.8673 63.58 32.6872 63.63 32.497L64.12 30.6859L62 30.1355L62.19 29.425L68.95 31.2362L68.27 33.7679C68.1168 34.5066 67.7055 35.1665 67.11 35.6291C66.8363 35.8192 66.5224 35.9435 66.1928 35.9921C65.8632 36.0407 65.5268 36.0124 65.21 35.9093C64.7274 35.8045 64.295 35.5382 63.9841 35.1544C63.6732 34.7705 63.5024 34.292 63.5 33.7979L60.74 34.7985L60.93 34.0481ZM64.28 34.3282C64.3971 34.5409 64.556 34.7277 64.7472 34.8773C64.9383 35.0269 65.1577 35.1363 65.3921 35.199C65.6266 35.2616 65.8713 35.2761 66.1115 35.2417C66.3517 35.2073 66.5825 35.1246 66.79 34.9987C67.2314 34.6439 67.5326 34.144 67.64 33.5878L68.12 31.7866L64.73 30.876L64.25 32.6772C64.0655 33.2139 64.0761 33.7986 64.28 34.3282V34.3282Z" fill="white"/>
<path d="M57.34 40.4922L56.83 40.102L59.83 36.1494L65.41 40.3822L62.51 44.2147L62 43.8244L64.45 40.5923L62.45 39.0813L60.26 41.9732L59.76 41.593L62 38.7011L59.93 37.1301L57.34 40.4922Z" fill="white"/>
<path d="M54.9999 48.4674L53.5699 48.5474V48.0671L54.9999 48.0571L54.2299 46.8663L54.6199 46.6162L55.3799 47.8169L55.9999 46.4761L56.4299 46.7062L55.7499 47.967L57.1799 47.887V48.3773H55.7299L56.4999 49.5681L56.1099 49.8182L55.3499 48.6175L54.6899 49.9183L54.2699 49.6782L54.9999 48.4674Z" fill="white"/>
<path d="M42 47.6667L43.21 48.3372C43.4128 47.9472 43.696 47.6047 44.0407 47.3322C44.3854 47.0597 44.7839 46.8634 45.21 46.7562C45.6074 46.6321 46.0254 46.5879 46.44 46.6261C46.7997 46.6537 47.1452 46.7782 47.44 46.9863C47.7064 47.1873 47.9025 47.4675 48 47.7868C48.1205 48.1818 48.0993 48.6066 47.94 48.9876C47.6891 49.5053 47.3508 49.9759 46.94 50.3785C47.2697 50.5558 47.5755 50.7744 47.85 51.0289C48.0386 51.224 48.179 51.4604 48.26 51.7194C48.3112 51.9213 48.3144 52.1324 48.2693 52.3357C48.2241 52.5391 48.1319 52.729 48 52.8901C47.733 53.275 47.3347 53.549 46.88 53.6606C46.4807 53.813 46.0393 53.813 45.64 53.6606C45.4624 53.5842 45.305 53.4676 45.1801 53.3201C45.0551 53.1725 44.9661 52.9979 44.92 52.8101C44.8151 52.4798 44.8402 52.1219 44.99 51.8094C45.2195 51.3545 45.52 50.9391 45.88 50.5786L43.47 49.2378C43.378 49.709 43.3578 50.1914 43.41 50.6687H42.8C42.7589 50.0809 42.8267 49.4907 43 48.9276L41.74 48.2271L42 47.6667ZM43.74 48.6674L46.39 50.1384C46.7373 49.8065 47.0248 49.4172 47.24 48.9876C47.3499 48.6975 47.3499 48.3771 47.24 48.087C47.1946 47.9137 47.1069 47.7543 46.9847 47.6233C46.8625 47.4923 46.7097 47.3937 46.54 47.3365C46.1248 47.1962 45.6751 47.1962 45.26 47.3365C44.9207 47.4261 44.6053 47.589 44.3357 47.8137C44.0662 48.0385 43.8492 48.3196 43.7 48.6374L43.74 48.6674ZM47.5 52.67C47.5653 52.5594 47.6063 52.4361 47.6201 52.3084C47.6339 52.1807 47.6202 52.0515 47.58 51.9295C47.5187 51.7319 47.4087 51.553 47.26 51.4092C47.0054 51.1943 46.7269 51.0096 46.43 50.8588C46.1268 51.1588 45.8615 51.4949 45.64 51.8595C45.5191 52.0868 45.4904 52.352 45.56 52.6C45.5917 52.7144 45.6473 52.8209 45.7232 52.9123C45.799 53.0037 45.8934 53.078 46 53.1303C46.2546 53.2263 46.5354 53.2263 46.79 53.1303C47.0619 53.0577 47.2992 52.8911 47.46 52.66L47.5 52.67Z" fill="white"/>
<path d="M29.8101 55.3817L29.9501 48.3772H30.6601L30.5501 53.9808L33.3901 49.3178H33.7401L36.4001 54.0609L36.5001 48.4873H37.2101L37.0801 55.4918H36.4701L33.5301 50.2584L30.4201 55.3918L29.8101 55.3817Z" fill="white"/>
<path d="M26.33 48.057C26.7873 48.4931 27.1145 49.0477 27.2752 49.6591C27.4359 50.2704 27.4237 50.9144 27.24 51.5192C27.0757 52.1385 26.7475 52.702 26.29 53.1503C25.8454 53.5876 25.2879 53.8925 24.68 54.0308C24.0387 54.1756 23.3711 54.155 22.74 53.9708C22.111 53.8171 21.5323 53.5034 21.06 53.0602C20.6095 52.6297 20.2875 52.0823 20.13 51.4792C19.9762 50.8557 19.9876 50.203 20.1629 49.5853C20.3383 48.9676 20.6716 48.4063 21.13 47.9569C21.5667 47.5207 22.1123 47.2097 22.71 47.0563C23.348 46.9119 24.0122 46.9326 24.64 47.1163C25.2755 47.2775 25.858 47.6017 26.33 48.057V48.057ZM22.92 47.7067C22.4308 47.8207 21.9837 48.0704 21.63 48.4272C21.2616 48.7943 20.9991 49.2541 20.87 49.7581C20.7305 50.2589 20.7305 50.7883 20.87 51.2891C20.9879 51.7763 21.241 52.2202 21.6 52.5699C21.9765 52.9383 22.4414 53.2037 22.95 53.3404C23.4585 53.47 23.9914 53.47 24.5 53.3404C24.9895 53.2199 25.4382 52.9713 25.8 52.6199C26.1664 52.2513 26.4286 51.7921 26.56 51.2891C26.6998 50.7849 26.6998 50.2522 26.56 49.7481C26.432 49.2627 26.1765 48.8204 25.82 48.4672C25.4415 48.0983 24.9723 47.836 24.46 47.7067C23.9561 47.5674 23.4239 47.5674 22.92 47.7067V47.7067Z" fill="white"/>
<path d="M15.35 43.0538L15.62 45.8056C15.7916 45.8789 15.9585 45.9624 16.12 46.0558L17.75 46.9964L18.85 45.0551L19.5 45.4253L16 51.4593L13.72 50.1484C13.0461 49.8096 12.5145 49.2422 12.22 48.5474C12.1113 48.2343 12.0747 47.9008 12.1127 47.5716C12.1508 47.2424 12.2627 46.926 12.44 46.6461C12.6725 46.2076 13.041 45.8564 13.49 45.6455C13.9461 45.4564 14.4506 45.4179 14.93 45.5354L14.64 42.5935L15.35 43.0538ZM14.21 46.2159C13.9752 46.2748 13.7546 46.3806 13.5615 46.5268C13.3685 46.6731 13.2069 46.8568 13.0864 47.067C12.966 47.2772 12.8892 47.5096 12.8606 47.7502C12.832 47.9908 12.8522 48.2347 12.92 48.4673C13.1544 48.9852 13.5608 49.406 14.07 49.6581L15.68 50.5887L17.43 47.5867L15.82 46.6561C15.3573 46.3092 14.7875 46.1356 14.21 46.1658V46.2159Z" fill="white"/>
<path d="M9.43 38.3607L9.88 37.9104L13.33 41.4627L8.33 46.3459L5 42.9036L5.46 42.4534L8.29 45.3652L10 43.6341L7.52 41.0524L8 40.5921L10.53 43.1938L12.39 41.3827L9.43 38.3607Z" fill="white"/>
<path d="M1.99999 34.4283L2.23999 33.0474L2.70999 33.1174L2.43999 34.5383L3.76999 34.048L3.92999 34.4883L2.57999 34.9486L3.68999 35.8892L3.36999 36.2494L2.29999 35.2488L2.04999 36.6697L1.56999 36.5797L1.84999 35.1587L0.509985 35.639L0.359985 35.2488L1.69999 34.7785L0.589985 33.8479L0.919985 33.4876L1.99999 34.4283Z" fill="white"/>
</g>
<defs>
<clipPath id="clip0_56_22">
<rect width="68.93" height="55.496" fill="white" transform="translate(0 0.0258789)"/>
</clipPath>
</defs>
</svg>
